<svg width="80" height="80" viewBox="0 0 80 80" fill="none" xmlns="http://www.w3.org/2000/svg">
<path d="M8 20C8 17.8783 8.84285 15.8434 10.3431 14.3431C11.8434 12.8429 13.8783 12 16 12H44C46.1217 12 48.1566 12.8429 49.6569 14.3431C51.1571 15.8434 52 17.8783 52 20V36C52 38.1217 51.1571 40.1566 49.6569 41.6569C48.1566 43.1571 46.1217 44 44 44H36L24 56V44H16C13.8783 44 11.8434 43.1571 10.3431 41.6569C8.84285 40.1566 8 38.1217 8 36V20Z" fill="#EE6B04"/>
<path d="M60 28V36C60 40.2435 58.3143 44.3131 55.3137 47.3137C52.3131 50.3143 48.2435 52 44 52H39.312L32.248 59.068C33.368 59.664 34.644 60 36 60H44L56 72V60H64C66.1217 60 68.1566 59.1571 69.6569 57.6569C71.1571 56.1566 72 54.1217 72 52V36C72 33.8783 71.1571 31.8434 69.6569 30.3431C68.1566 28.8429 66.1217 28 64 28H60Z" fill="#EE6B04"/>
</svg>
