<svg width="80" height="54" viewBox="0 0 80 54" fill="none" xmlns="http://www.w3.org/2000/svg">
<path d="M0 53.6666V44.4166C0 42.5277 0.472222 40.7777 1.41667 39.1666C2.36111 37.5555 3.66667 36.3333 5.33333 35.4999C6.11111 35.111 6.86111 34.7499 7.58333 34.4166C8.36111 34.0833 9.16667 33.7777 10 33.4999V53.6666H0ZM13.3333 30.3333C10.5556 30.3333 8.19444 29.361 6.25 27.4166C4.30556 25.4721 3.33333 23.111 3.33333 20.3333C3.33333 17.5555 4.30556 15.1944 6.25 13.2499C8.19444 11.3055 10.5556 10.3333 13.3333 10.3333C16.1111 10.3333 18.4722 11.3055 20.4167 13.2499C22.3611 15.1944 23.3333 17.5555 23.3333 20.3333C23.3333 23.111 22.3611 25.4721 20.4167 27.4166C18.4722 29.361 16.1111 30.3333 13.3333 30.3333ZM13.3333 23.6666C14.2778 23.6666 15.0556 23.361 15.6667 22.7499C16.3333 22.0833 16.6667 21.2777 16.6667 20.3333C16.6667 19.3888 16.3333 18.611 15.6667 17.9999C15.0556 17.3333 14.2778 16.9999 13.3333 16.9999C12.3889 16.9999 11.5833 17.3333 10.9167 17.9999C10.3056 18.611 10 19.3888 10 20.3333C10 21.2777 10.3056 22.0833 10.9167 22.7499C11.5833 23.361 12.3889 23.6666 13.3333 23.6666ZM13.3333 53.6666V44.3333C13.3333 42.4444 13.8056 40.7221 14.75 39.1666C15.75 37.5555 17.0556 36.3333 18.6667 35.4999C22.1111 33.7777 25.6111 32.4999 29.1667 31.6666C32.7222 30.7777 36.3333 30.3333 40 30.3333C43.6667 30.3333 47.2778 30.7777 50.8333 31.6666C54.3889 32.4999 57.8889 33.7777 61.3333 35.4999C62.9444 36.3333 64.2222 37.5555 65.1667 39.1666C66.1667 40.7221 66.6667 42.4444 66.6667 44.3333V53.6666H13.3333ZM20 46.9999H60V44.3333C60 43.7221 59.8333 43.1666 59.5 42.6666C59.2222 42.1666 58.8333 41.7777 58.3333 41.4999C55.3333 39.9999 52.3056 38.8888 49.25 38.1666C46.1944 37.3888 43.1111 36.9999 40 36.9999C36.8889 36.9999 33.8056 37.3888 30.75 38.1666C27.6944 38.8888 24.6667 39.9999 21.6667 41.4999C21.1667 41.7777 20.75 42.1666 20.4167 42.6666C20.1389 43.1666 20 43.7221 20 44.3333V46.9999ZM40 26.9999C36.3333 26.9999 33.1944 25.6944 30.5833 23.0833C27.9722 20.4721 26.6667 17.3333 26.6667 13.6666C26.6667 9.99992 27.9722 6.86103 30.5833 4.24992C33.1944 1.63881 36.3333 0.333252 40 0.333252C43.6667 0.333252 46.8056 1.63881 49.4167 4.24992C52.0278 6.86103 53.3333 9.99992 53.3333 13.6666C53.3333 17.3333 52.0278 20.4721 49.4167 23.0833C46.8056 25.6944 43.6667 26.9999 40 26.9999ZM40 20.3333C41.8333 20.3333 43.3889 19.6944 44.6667 18.4166C46 17.0833 46.6667 15.4999 46.6667 13.6666C46.6667 11.8333 46 10.2777 44.6667 8.99992C43.3889 7.66659 41.8333 6.99992 40 6.99992C38.1667 6.99992 36.5833 7.66659 35.25 8.99992C33.9722 10.2777 33.3333 11.8333 33.3333 13.6666C33.3333 15.4999 33.9722 17.0833 35.25 18.4166C36.5833 19.6944 38.1667 20.3333 40 20.3333ZM66.6667 30.3333C63.8889 30.3333 61.5278 29.361 59.5833 27.4166C57.6389 25.4721 56.6667 23.111 56.6667 20.3333C56.6667 17.5555 57.6389 15.1944 59.5833 13.2499C61.5278 11.3055 63.8889 10.3333 66.6667 10.3333C69.4444 10.3333 71.8056 11.3055 73.75 13.2499C75.6944 15.1944 76.6667 17.5555 76.6667 20.3333C76.6667 23.111 75.6944 25.4721 73.75 27.4166C71.8056 29.361 69.4444 30.3333 66.6667 30.3333ZM66.6667 23.6666C67.6111 23.6666 68.3889 23.361 69 22.7499C69.6667 22.0833 70 21.2777 70 20.3333C70 19.3888 69.6667 18.611 69 17.9999C68.3889 17.3333 67.6111 16.9999 66.6667 16.9999C65.7222 16.9999 64.9167 17.3333 64.25 17.9999C63.6389 18.611 63.3333 19.3888 63.3333 20.3333C63.3333 21.2777 63.6389 22.0833 64.25 22.7499C64.9167 23.361 65.7222 23.6666 66.6667 23.6666ZM70 53.6666V33.4999C70.8333 33.7777 71.6111 34.0833 72.3333 34.4166C73.1111 34.7499 73.8889 35.111 74.6667 35.4999C76.3333 36.3333 77.6389 37.5555 78.5833 39.1666C79.5278 40.7777 80 42.5277 80 44.4166V53.6666H70Z" fill="#EE6B04"/>
</svg>
