<svg width="62" height="22" viewBox="0 0 62 22" fill="none" xmlns="http://www.w3.org/2000/svg">
<path d="M9.65625 0.265625L17.2031 17.375H15.1875L13.3125 12.9688H4.35938L2.48438 17.375H0.421875L7.92188 0.265625H9.65625ZM12.6094 11.3281L8.8125 2.5625L5.0625 11.3281H12.6094ZM30.9844 11.6094L33.1406 17.375H31.0781L28.9688 11.7031C28.4531 10.2969 27.6094 9.92188 25.9688 9.92188H21.7031V17.375H19.7344V0.265625H26.5312C30.1875 0.265625 32.25 1.95312 32.25 5.04688C32.25 7.25 31.0312 8.84375 28.8281 9.5C29.8125 9.64062 30.5156 10.2969 30.9844 11.6094ZM21.7031 1.90625V8.28125H26.3438C28.9688 8.28125 30.2812 7.20312 30.2812 5.04688C30.2812 2.9375 29.0625 1.90625 26.3438 1.90625H21.7031ZM39.2812 17.375H36.7969V14.8906H39.2812V17.375ZM46.4531 8.79688C46.5938 8.9375 46.6875 9.125 46.6875 9.40625V12.6406C46.6875 12.9219 46.6406 13.1562 46.4531 13.2969C46.2656 13.3906 46.0781 13.4844 45.8906 13.4844H45.0938V8.5625H45.8906C46.0781 8.5625 46.2656 8.65625 46.4531 8.79688ZM59.7656 0.5C60.8906 0.5 61.7812 1.4375 61.8281 2.5625V19.4844C61.7812 20.6094 60.8906 21.5 59.7656 21.5H42.8438C41.7188 21.5 40.8281 20.6094 40.8281 19.4844V2.5625C40.8281 1.4375 41.7188 0.5 42.8438 0.5H59.7656ZM48.0469 12.6875V9.35938C48.0469 8.46875 47.4844 7.10938 45.7969 7.10938H43.5938V14.8906H45.75C47.4844 14.8906 48.0469 13.5312 48.0469 12.6875ZM52.7344 8.51562V7.15625H49.7812C49.2656 7.15625 48.8438 7.57812 48.8438 8.09375V13.9531C48.8906 14.4688 49.3125 14.8906 49.8281 14.8906H52.7344V13.4844H50.25V11.7031H51.7969V10.2969H50.25V8.51562H52.7344ZM57.6094 13.9062L59.3906 7.15625H57.8906L56.4844 12.4531L55.125 7.15625H53.5781L55.4062 13.9062C55.875 15.0781 57 15.3594 57.6094 13.9062Z" fill="#EE5E04"/>
</svg>
